<mxfile host="app.diagrams.net" modified="2023-07-14T07:18:32.392Z" agent="Mozilla/5.0 (Macintosh; Intel Mac OS X 10_15_7) AppleWebKit/537.36 (KHTML, like Gecko) Chrome/114.0.0.0 Safari/537.36" etag="BHM4OyKO8qWCoWhSKk5h" version="21.6.1" type="github">
  <diagram name="第 1 页" id="2LPgw6x0lP4YFarTiaSZ">
    <mxGraphModel dx="2736" dy="1776" grid="1" gridSize="10" guides="1" tooltips="1" connect="1" arrows="1" fold="1" page="0" pageScale="1" pageWidth="827" pageHeight="1169" math="0" shadow="0">
      <root>
        <mxCell id="0" />
        <mxCell id="1" parent="0" />
        <mxCell id="FMsZeif13KGJiMdeBh8e-33" value="" style="rounded=0;whiteSpace=wrap;html=1;dashed=1;dashPattern=8 8;strokeColor=#FF9933;strokeWidth=2;" parent="1" vertex="1">
          <mxGeometry x="255" y="-540" width="855" height="200" as="geometry" />
        </mxCell>
        <mxCell id="YFNmjtGdTgRsqBSVT-xc-40" style="edgeStyle=orthogonalEdgeStyle;rounded=0;orthogonalLoop=1;jettySize=auto;html=1;entryX=0.5;entryY=0;entryDx=0;entryDy=0;" edge="1" parent="1" source="YFNmjtGdTgRsqBSVT-xc-38" target="FMsZeif13KGJiMdeBh8e-42">
          <mxGeometry relative="1" as="geometry" />
        </mxCell>
        <mxCell id="YFNmjtGdTgRsqBSVT-xc-42" value="圈选简历结果" style="edgeLabel;html=1;align=center;verticalAlign=middle;resizable=0;points=[];fontSize=21;fontColor=#FF9933;" vertex="1" connectable="0" parent="YFNmjtGdTgRsqBSVT-xc-40">
          <mxGeometry x="0.0222" y="-1" relative="1" as="geometry">
            <mxPoint x="1" y="20" as="offset" />
          </mxGeometry>
        </mxCell>
        <mxCell id="YFNmjtGdTgRsqBSVT-xc-38" value="" style="rounded=0;whiteSpace=wrap;html=1;dashed=1;strokeWidth=2;strokeColor=#FF9933;dashPattern=12 12;" vertex="1" parent="1">
          <mxGeometry x="252.5" y="-790" width="185" height="200" as="geometry" />
        </mxCell>
        <mxCell id="YFNmjtGdTgRsqBSVT-xc-25" value="" style="rounded=0;whiteSpace=wrap;html=1;dashed=1;strokeWidth=2;strokeColor=#3399FF;dashPattern=12 12;" vertex="1" parent="1">
          <mxGeometry x="-150" y="-540" width="240" height="540" as="geometry" />
        </mxCell>
        <mxCell id="YFNmjtGdTgRsqBSVT-xc-14" value="" style="rounded=0;whiteSpace=wrap;html=1;dashed=1;strokeWidth=2;strokeColor=#3399FF;dashPattern=12 12;" vertex="1" parent="1">
          <mxGeometry x="-560" y="-540" width="130" height="190" as="geometry" />
        </mxCell>
        <mxCell id="YFNmjtGdTgRsqBSVT-xc-12" value="" style="rounded=0;whiteSpace=wrap;html=1;dashed=1;strokeWidth=2;strokeColor=#3399FF;dashPattern=12 12;" vertex="1" parent="1">
          <mxGeometry x="-405" y="-540" width="240" height="540" as="geometry" />
        </mxCell>
        <mxCell id="YFNmjtGdTgRsqBSVT-xc-2" style="edgeStyle=orthogonalEdgeStyle;rounded=0;orthogonalLoop=1;jettySize=auto;html=1;entryX=0;entryY=0.5;entryDx=0;entryDy=0;" edge="1" parent="1" source="FMsZeif13KGJiMdeBh8e-35" target="YFNmjtGdTgRsqBSVT-xc-1">
          <mxGeometry relative="1" as="geometry" />
        </mxCell>
        <mxCell id="FMsZeif13KGJiMdeBh8e-35" value="" style="image;html=1;image=img/lib/clip_art/people/Suit_Man_128x128.png;rounded=0;" parent="1" vertex="1">
          <mxGeometry x="-520" y="-450" width="80" height="80" as="geometry" />
        </mxCell>
        <mxCell id="FMsZeif13KGJiMdeBh8e-36" value="整体流程" style="text;html=1;strokeColor=none;fillColor=none;align=center;verticalAlign=middle;whiteSpace=wrap;rounded=0;fontSize=24;" parent="1" vertex="1">
          <mxGeometry x="-560" y="-600" width="120" height="40" as="geometry" />
        </mxCell>
        <mxCell id="YFNmjtGdTgRsqBSVT-xc-27" value="" style="edgeStyle=orthogonalEdgeStyle;rounded=0;orthogonalLoop=1;jettySize=auto;html=1;" edge="1" parent="1" source="FMsZeif13KGJiMdeBh8e-38" target="YFNmjtGdTgRsqBSVT-xc-26">
          <mxGeometry relative="1" as="geometry" />
        </mxCell>
        <mxCell id="FMsZeif13KGJiMdeBh8e-38" value="创建微聊任务" style="whiteSpace=wrap;html=1;verticalAlign=middle;labelBackgroundColor=none;fontSize=20;fillColor=#dae8fc;strokeColor=#6c8ebf;rounded=0;" parent="1" vertex="1">
          <mxGeometry x="-100" y="-430" width="130" height="40" as="geometry" />
        </mxCell>
        <mxCell id="YFNmjtGdTgRsqBSVT-xc-39" style="edgeStyle=orthogonalEdgeStyle;rounded=0;orthogonalLoop=1;jettySize=auto;html=1;" edge="1" parent="1" source="FMsZeif13KGJiMdeBh8e-40" target="YFNmjtGdTgRsqBSVT-xc-38">
          <mxGeometry relative="1" as="geometry" />
        </mxCell>
        <mxCell id="FMsZeif13KGJiMdeBh8e-40" value="恒星简历圈选" style="whiteSpace=wrap;html=1;verticalAlign=middle;labelBackgroundColor=none;fontSize=20;fillColor=#fff2cc;strokeColor=#d6b656;rounded=0;" parent="1" vertex="1">
          <mxGeometry x="280" y="-430" width="130" height="40" as="geometry" />
        </mxCell>
        <mxCell id="YFNmjtGdTgRsqBSVT-xc-72" value="" style="edgeStyle=orthogonalEdgeStyle;rounded=0;orthogonalLoop=1;jettySize=auto;html=1;" edge="1" parent="1" source="FMsZeif13KGJiMdeBh8e-42" target="YFNmjtGdTgRsqBSVT-xc-71">
          <mxGeometry relative="1" as="geometry" />
        </mxCell>
        <mxCell id="FMsZeif13KGJiMdeBh8e-42" value="组装数据" style="whiteSpace=wrap;html=1;verticalAlign=middle;labelBackgroundColor=none;fontSize=20;fillColor=#f8cecc;strokeColor=#b85450;rounded=0;" parent="1" vertex="1">
          <mxGeometry x="450" y="-430" width="110" height="40" as="geometry" />
        </mxCell>
        <mxCell id="FMsZeif13KGJiMdeBh8e-43" value="" style="edgeStyle=orthogonalEdgeStyle;rounded=0;orthogonalLoop=1;jettySize=auto;html=1;" parent="1" source="FMsZeif13KGJiMdeBh8e-44" target="FMsZeif13KGJiMdeBh8e-57" edge="1">
          <mxGeometry relative="1" as="geometry">
            <Array as="points">
              <mxPoint x="935" y="-420" />
              <mxPoint x="935" y="-420" />
            </Array>
          </mxGeometry>
        </mxCell>
        <mxCell id="FMsZeif13KGJiMdeBh8e-60" style="edgeStyle=orthogonalEdgeStyle;rounded=0;orthogonalLoop=1;jettySize=auto;html=1;entryX=0;entryY=0.5;entryDx=0;entryDy=0;" parent="1" source="FMsZeif13KGJiMdeBh8e-44" target="FMsZeif13KGJiMdeBh8e-47" edge="1">
          <mxGeometry relative="1" as="geometry">
            <Array as="points">
              <mxPoint x="850" y="-360" />
            </Array>
          </mxGeometry>
        </mxCell>
        <mxCell id="YFNmjtGdTgRsqBSVT-xc-44" style="edgeStyle=orthogonalEdgeStyle;rounded=0;orthogonalLoop=1;jettySize=auto;html=1;entryX=0.5;entryY=1;entryDx=0;entryDy=0;" edge="1" parent="1" source="FMsZeif13KGJiMdeBh8e-44" target="YFNmjtGdTgRsqBSVT-xc-43">
          <mxGeometry relative="1" as="geometry" />
        </mxCell>
        <mxCell id="FMsZeif13KGJiMdeBh8e-44" value="推送直聊" style="whiteSpace=wrap;html=1;verticalAlign=middle;labelBackgroundColor=none;fontSize=20;fillColor=#f8cecc;strokeColor=#b85450;rounded=0;" parent="1" vertex="1">
          <mxGeometry x="795" y="-430" width="110" height="40" as="geometry" />
        </mxCell>
        <mxCell id="FMsZeif13KGJiMdeBh8e-46" style="edgeStyle=orthogonalEdgeStyle;orthogonalLoop=1;jettySize=auto;html=1;entryX=1;entryY=0.5;entryDx=0;entryDy=0;" parent="1" source="FMsZeif13KGJiMdeBh8e-47" target="FMsZeif13KGJiMdeBh8e-52" edge="1">
          <mxGeometry relative="1" as="geometry">
            <Array as="points">
              <mxPoint x="1165" y="-310" />
              <mxPoint x="1165" y="-310" />
            </Array>
          </mxGeometry>
        </mxCell>
        <mxCell id="YFNmjtGdTgRsqBSVT-xc-46" value="约面结束-AI标签ESB" style="edgeLabel;html=1;align=center;verticalAlign=middle;resizable=0;points=[];fontSize=19;" vertex="1" connectable="0" parent="FMsZeif13KGJiMdeBh8e-46">
          <mxGeometry x="0.0715" y="1" relative="1" as="geometry">
            <mxPoint x="-1" as="offset" />
          </mxGeometry>
        </mxCell>
        <mxCell id="YFNmjtGdTgRsqBSVT-xc-48" style="edgeStyle=orthogonalEdgeStyle;rounded=0;orthogonalLoop=1;jettySize=auto;html=1;entryX=0.5;entryY=0;entryDx=0;entryDy=0;" edge="1" parent="1" source="FMsZeif13KGJiMdeBh8e-47" target="YFNmjtGdTgRsqBSVT-xc-47">
          <mxGeometry relative="1" as="geometry" />
        </mxCell>
        <mxCell id="YFNmjtGdTgRsqBSVT-xc-49" value="直聊会话记录ESB" style="edgeLabel;html=1;align=center;verticalAlign=middle;resizable=0;points=[];fontSize=20;" vertex="1" connectable="0" parent="YFNmjtGdTgRsqBSVT-xc-48">
          <mxGeometry x="-0.2376" y="-5" relative="1" as="geometry">
            <mxPoint as="offset" />
          </mxGeometry>
        </mxCell>
        <mxCell id="YFNmjtGdTgRsqBSVT-xc-55" style="edgeStyle=orthogonalEdgeStyle;rounded=0;orthogonalLoop=1;jettySize=auto;html=1;entryX=0;entryY=0.5;entryDx=0;entryDy=0;" edge="1" parent="1" source="FMsZeif13KGJiMdeBh8e-47" target="YFNmjtGdTgRsqBSVT-xc-54">
          <mxGeometry relative="1" as="geometry" />
        </mxCell>
        <mxCell id="YFNmjtGdTgRsqBSVT-xc-56" value="C-AI建立连接ESB" style="edgeLabel;html=1;align=center;verticalAlign=middle;resizable=0;points=[];fontSize=19;" vertex="1" connectable="0" parent="YFNmjtGdTgRsqBSVT-xc-55">
          <mxGeometry x="-0.1757" y="1" relative="1" as="geometry">
            <mxPoint x="11" y="1" as="offset" />
          </mxGeometry>
        </mxCell>
        <mxCell id="FMsZeif13KGJiMdeBh8e-47" value="WMB" style="whiteSpace=wrap;html=1;verticalAlign=middle;labelBackgroundColor=none;fontSize=20;fillColor=#fad7ac;strokeColor=#b46504;rounded=0;" parent="1" vertex="1">
          <mxGeometry x="1185" y="-460" width="60" height="200" as="geometry" />
        </mxCell>
        <mxCell id="YFNmjtGdTgRsqBSVT-xc-76" style="edgeStyle=orthogonalEdgeStyle;rounded=0;orthogonalLoop=1;jettySize=auto;html=1;" edge="1" parent="1" source="FMsZeif13KGJiMdeBh8e-52" target="FMsZeif13KGJiMdeBh8e-63">
          <mxGeometry relative="1" as="geometry" />
        </mxCell>
        <mxCell id="YFNmjtGdTgRsqBSVT-xc-79" value="" style="edgeStyle=orthogonalEdgeStyle;rounded=0;orthogonalLoop=1;jettySize=auto;html=1;" edge="1" parent="1" source="FMsZeif13KGJiMdeBh8e-52" target="YFNmjtGdTgRsqBSVT-xc-78">
          <mxGeometry relative="1" as="geometry" />
        </mxCell>
        <mxCell id="FMsZeif13KGJiMdeBh8e-52" value="处理逻辑" style="whiteSpace=wrap;html=1;verticalAlign=middle;labelBackgroundColor=none;fontSize=20;fillColor=#d5e8d4;strokeColor=#82b366;rounded=0;" parent="1" vertex="1">
          <mxGeometry x="750" y="-330" width="120" height="40" as="geometry" />
        </mxCell>
        <mxCell id="FMsZeif13KGJiMdeBh8e-61" style="edgeStyle=orthogonalEdgeStyle;rounded=0;orthogonalLoop=1;jettySize=auto;html=1;entryX=1;entryY=0.75;entryDx=0;entryDy=0;" parent="1" source="FMsZeif13KGJiMdeBh8e-57" target="FMsZeif13KGJiMdeBh8e-44" edge="1">
          <mxGeometry relative="1" as="geometry">
            <Array as="points">
              <mxPoint x="945" y="-400" />
              <mxPoint x="945" y="-400" />
            </Array>
          </mxGeometry>
        </mxCell>
        <mxCell id="YFNmjtGdTgRsqBSVT-xc-45" style="edgeStyle=orthogonalEdgeStyle;rounded=0;orthogonalLoop=1;jettySize=auto;html=1;entryX=0.5;entryY=1;entryDx=0;entryDy=0;" edge="1" parent="1" source="FMsZeif13KGJiMdeBh8e-57" target="FMsZeif13KGJiMdeBh8e-58">
          <mxGeometry relative="1" as="geometry" />
        </mxCell>
        <mxCell id="FMsZeif13KGJiMdeBh8e-57" value="AI侧" style="whiteSpace=wrap;html=1;verticalAlign=middle;labelBackgroundColor=none;fontSize=20;fillColor=#e1d5e7;strokeColor=#9673a6;rounded=0;" parent="1" vertex="1">
          <mxGeometry x="965" y="-430" width="110" height="40" as="geometry" />
        </mxCell>
        <mxCell id="FMsZeif13KGJiMdeBh8e-58" value="MF-FAQ" style="whiteSpace=wrap;html=1;verticalAlign=middle;labelBackgroundColor=none;fontSize=20;fillColor=#f8cecc;strokeColor=#b85450;rounded=0;" parent="1" vertex="1">
          <mxGeometry x="965" y="-530" width="110" height="40" as="geometry" />
        </mxCell>
        <mxCell id="FMsZeif13KGJiMdeBh8e-76" style="edgeStyle=orthogonalEdgeStyle;rounded=0;orthogonalLoop=1;jettySize=auto;html=1;entryX=0.5;entryY=0;entryDx=0;entryDy=0;" parent="1" source="FMsZeif13KGJiMdeBh8e-63" target="FMsZeif13KGJiMdeBh8e-75" edge="1">
          <mxGeometry relative="1" as="geometry" />
        </mxCell>
        <mxCell id="FMsZeif13KGJiMdeBh8e-77" style="edgeStyle=orthogonalEdgeStyle;rounded=0;orthogonalLoop=1;jettySize=auto;html=1;entryX=0.5;entryY=0;entryDx=0;entryDy=0;" parent="1" source="FMsZeif13KGJiMdeBh8e-63" target="FMsZeif13KGJiMdeBh8e-74" edge="1">
          <mxGeometry relative="1" as="geometry" />
        </mxCell>
        <mxCell id="FMsZeif13KGJiMdeBh8e-63" value="AI标签解析" style="whiteSpace=wrap;html=1;verticalAlign=middle;labelBackgroundColor=none;fontSize=20;fillColor=#b1ddf0;strokeColor=#10739e;rounded=0;" parent="1" vertex="1">
          <mxGeometry x="640" y="-240" width="120" height="40" as="geometry" />
        </mxCell>
        <mxCell id="FMsZeif13KGJiMdeBh8e-65" value="数据统计" style="whiteSpace=wrap;html=1;verticalAlign=middle;labelBackgroundColor=none;fontSize=20;fillColor=#bac8d3;strokeColor=#23445d;rounded=0;" parent="1" vertex="1">
          <mxGeometry x="860" y="-170" width="120" height="40" as="geometry" />
        </mxCell>
        <mxCell id="YFNmjtGdTgRsqBSVT-xc-69" style="edgeStyle=orthogonalEdgeStyle;rounded=0;orthogonalLoop=1;jettySize=auto;html=1;entryX=0.5;entryY=0;entryDx=0;entryDy=0;" edge="1" parent="1" source="FMsZeif13KGJiMdeBh8e-74" target="YFNmjtGdTgRsqBSVT-xc-68">
          <mxGeometry relative="1" as="geometry" />
        </mxCell>
        <mxCell id="FMsZeif13KGJiMdeBh8e-74" value="轮询DL" style="whiteSpace=wrap;html=1;verticalAlign=middle;labelBackgroundColor=none;fontSize=20;fillColor=#fad9d5;strokeColor=#ae4132;rounded=0;" parent="1" vertex="1">
          <mxGeometry x="720" y="-140" width="110" height="40" as="geometry" />
        </mxCell>
        <mxCell id="YFNmjtGdTgRsqBSVT-xc-65" style="edgeStyle=orthogonalEdgeStyle;rounded=0;orthogonalLoop=1;jettySize=auto;html=1;" edge="1" parent="1" source="FMsZeif13KGJiMdeBh8e-75" target="YFNmjtGdTgRsqBSVT-xc-63">
          <mxGeometry relative="1" as="geometry" />
        </mxCell>
        <mxCell id="FMsZeif13KGJiMdeBh8e-75" value="轮询DL" style="whiteSpace=wrap;html=1;verticalAlign=middle;labelBackgroundColor=none;fontSize=20;fillColor=#fad9d5;strokeColor=#ae4132;rounded=0;" parent="1" vertex="1">
          <mxGeometry x="570" y="-140" width="110" height="40" as="geometry" />
        </mxCell>
        <mxCell id="FMsZeif13KGJiMdeBh8e-78" value="沟通记录" style="whiteSpace=wrap;html=1;verticalAlign=middle;labelBackgroundColor=none;fontSize=20;fillColor=#fad9d5;strokeColor=#ae4132;rounded=0;" parent="1" vertex="1">
          <mxGeometry x="640" y="-10" width="120" height="40" as="geometry" />
        </mxCell>
        <mxCell id="YFNmjtGdTgRsqBSVT-xc-11" style="edgeStyle=orthogonalEdgeStyle;rounded=0;orthogonalLoop=1;jettySize=auto;html=1;" edge="1" parent="1" source="YFNmjtGdTgRsqBSVT-xc-1" target="FMsZeif13KGJiMdeBh8e-38">
          <mxGeometry relative="1" as="geometry" />
        </mxCell>
        <mxCell id="YFNmjtGdTgRsqBSVT-xc-1" value="项目池-已接单" style="whiteSpace=wrap;html=1;verticalAlign=middle;labelBackgroundColor=none;fontSize=20;fillColor=#dae8fc;strokeColor=#6c8ebf;rounded=0;" vertex="1" parent="1">
          <mxGeometry x="-350" y="-430" width="130" height="40" as="geometry" />
        </mxCell>
        <mxCell id="YFNmjtGdTgRsqBSVT-xc-6" value="" style="edgeStyle=orthogonalEdgeStyle;rounded=0;orthogonalLoop=1;jettySize=auto;html=1;" edge="1" parent="1" source="YFNmjtGdTgRsqBSVT-xc-3" target="YFNmjtGdTgRsqBSVT-xc-5">
          <mxGeometry relative="1" as="geometry" />
        </mxCell>
        <mxCell id="YFNmjtGdTgRsqBSVT-xc-3" value="职位池" style="whiteSpace=wrap;html=1;verticalAlign=middle;labelBackgroundColor=none;fontSize=20;fillColor=#dae8fc;strokeColor=#6c8ebf;rounded=0;" vertex="1" parent="1">
          <mxGeometry x="-325" y="-90" width="80" height="40" as="geometry" />
        </mxCell>
        <mxCell id="YFNmjtGdTgRsqBSVT-xc-8" value="" style="edgeStyle=orthogonalEdgeStyle;rounded=0;orthogonalLoop=1;jettySize=auto;html=1;" edge="1" parent="1" source="YFNmjtGdTgRsqBSVT-xc-5" target="YFNmjtGdTgRsqBSVT-xc-7">
          <mxGeometry relative="1" as="geometry" />
        </mxCell>
        <mxCell id="YFNmjtGdTgRsqBSVT-xc-5" value="职位白名单" style="whiteSpace=wrap;html=1;verticalAlign=middle;labelBackgroundColor=none;fontSize=20;fillColor=#dae8fc;strokeColor=#6c8ebf;rounded=0;" vertex="1" parent="1">
          <mxGeometry x="-340" y="-150" width="110" height="40" as="geometry" />
        </mxCell>
        <mxCell id="YFNmjtGdTgRsqBSVT-xc-22" value="" style="edgeStyle=orthogonalEdgeStyle;rounded=0;orthogonalLoop=1;jettySize=auto;html=1;" edge="1" parent="1" source="YFNmjtGdTgRsqBSVT-xc-7" target="YFNmjtGdTgRsqBSVT-xc-21">
          <mxGeometry relative="1" as="geometry" />
        </mxCell>
        <mxCell id="YFNmjtGdTgRsqBSVT-xc-7" value="是否需要简历审核" style="whiteSpace=wrap;html=1;verticalAlign=middle;labelBackgroundColor=none;fontSize=20;fillColor=#dae8fc;strokeColor=#6c8ebf;rounded=0;" vertex="1" parent="1">
          <mxGeometry x="-372.5" y="-210" width="175" height="40" as="geometry" />
        </mxCell>
        <mxCell id="YFNmjtGdTgRsqBSVT-xc-13" value="展示校验" style="text;html=1;strokeColor=none;fillColor=none;align=center;verticalAlign=middle;rounded=0;fontSize=21;fontColor=#3399FF;" vertex="1" parent="1">
          <mxGeometry x="-405" y="-540" width="110" height="50" as="geometry" />
        </mxCell>
        <mxCell id="YFNmjtGdTgRsqBSVT-xc-15" value="权限控制" style="text;html=1;strokeColor=none;fillColor=none;align=center;verticalAlign=middle;rounded=0;fontSize=21;fontColor=#3399FF;" vertex="1" parent="1">
          <mxGeometry x="-560" y="-540" width="110" height="50" as="geometry" />
        </mxCell>
        <mxCell id="YFNmjtGdTgRsqBSVT-xc-19" style="edgeStyle=orthogonalEdgeStyle;rounded=0;orthogonalLoop=1;jettySize=auto;html=1;entryX=0;entryY=0.5;entryDx=0;entryDy=0;" edge="1" parent="1" source="YFNmjtGdTgRsqBSVT-xc-17" target="FMsZeif13KGJiMdeBh8e-40">
          <mxGeometry relative="1" as="geometry" />
        </mxCell>
        <mxCell id="YFNmjtGdTgRsqBSVT-xc-17" value="微聊任务启动" style="whiteSpace=wrap;html=1;verticalAlign=middle;labelBackgroundColor=none;fontSize=20;fillColor=#dae8fc;strokeColor=#6c8ebf;rounded=0;" vertex="1" parent="1">
          <mxGeometry x="110" y="-430" width="130" height="40" as="geometry" />
        </mxCell>
        <mxCell id="YFNmjtGdTgRsqBSVT-xc-23" style="edgeStyle=orthogonalEdgeStyle;rounded=0;orthogonalLoop=1;jettySize=auto;html=1;" edge="1" parent="1" source="YFNmjtGdTgRsqBSVT-xc-21" target="YFNmjtGdTgRsqBSVT-xc-1">
          <mxGeometry relative="1" as="geometry" />
        </mxCell>
        <mxCell id="YFNmjtGdTgRsqBSVT-xc-24" value="满足条件展示按钮" style="edgeLabel;html=1;align=center;verticalAlign=middle;resizable=0;points=[];fontSize=20;fontColor=#3399FF;" vertex="1" connectable="0" parent="YFNmjtGdTgRsqBSVT-xc-23">
          <mxGeometry x="0.1636" relative="1" as="geometry">
            <mxPoint as="offset" />
          </mxGeometry>
        </mxCell>
        <mxCell id="YFNmjtGdTgRsqBSVT-xc-21" value="是否关联恒星帖子" style="whiteSpace=wrap;html=1;verticalAlign=middle;labelBackgroundColor=none;fontSize=20;fillColor=#dae8fc;strokeColor=#6c8ebf;rounded=0;" vertex="1" parent="1">
          <mxGeometry x="-372.5" y="-280" width="175" height="40" as="geometry" />
        </mxCell>
        <mxCell id="YFNmjtGdTgRsqBSVT-xc-29" value="" style="edgeStyle=orthogonalEdgeStyle;rounded=0;orthogonalLoop=1;jettySize=auto;html=1;" edge="1" parent="1" source="YFNmjtGdTgRsqBSVT-xc-26" target="YFNmjtGdTgRsqBSVT-xc-28">
          <mxGeometry relative="1" as="geometry" />
        </mxCell>
        <mxCell id="YFNmjtGdTgRsqBSVT-xc-26" value="该职位是否已经有执行中的任务" style="whiteSpace=wrap;html=1;verticalAlign=middle;labelBackgroundColor=none;fontSize=20;fillColor=#dae8fc;strokeColor=#6c8ebf;rounded=0;" vertex="1" parent="1">
          <mxGeometry x="-100" y="-360" width="130" height="80" as="geometry" />
        </mxCell>
        <mxCell id="YFNmjtGdTgRsqBSVT-xc-31" value="" style="edgeStyle=orthogonalEdgeStyle;rounded=0;orthogonalLoop=1;jettySize=auto;html=1;" edge="1" parent="1" source="YFNmjtGdTgRsqBSVT-xc-28" target="YFNmjtGdTgRsqBSVT-xc-30">
          <mxGeometry relative="1" as="geometry" />
        </mxCell>
        <mxCell id="YFNmjtGdTgRsqBSVT-xc-28" value="职位在当前时间之后是否有面试场次" style="whiteSpace=wrap;html=1;verticalAlign=middle;labelBackgroundColor=none;fontSize=20;fillColor=#dae8fc;strokeColor=#6c8ebf;rounded=0;" vertex="1" parent="1">
          <mxGeometry x="-100" y="-260" width="130" height="80" as="geometry" />
        </mxCell>
        <mxCell id="YFNmjtGdTgRsqBSVT-xc-32" style="edgeStyle=orthogonalEdgeStyle;rounded=0;orthogonalLoop=1;jettySize=auto;html=1;entryX=0.5;entryY=1;entryDx=0;entryDy=0;" edge="1" parent="1" source="YFNmjtGdTgRsqBSVT-xc-30" target="YFNmjtGdTgRsqBSVT-xc-17">
          <mxGeometry relative="1" as="geometry" />
        </mxCell>
        <mxCell id="YFNmjtGdTgRsqBSVT-xc-33" value="满足条件启动任务" style="edgeLabel;html=1;align=center;verticalAlign=middle;resizable=0;points=[];fontSize=19;fontColor=#3399FF;" vertex="1" connectable="0" parent="YFNmjtGdTgRsqBSVT-xc-32">
          <mxGeometry x="0.3349" relative="1" as="geometry">
            <mxPoint as="offset" />
          </mxGeometry>
        </mxCell>
        <mxCell id="YFNmjtGdTgRsqBSVT-xc-30" value="是否设置了分配DL的白名单" style="whiteSpace=wrap;html=1;verticalAlign=middle;labelBackgroundColor=none;fontSize=20;fillColor=#dae8fc;strokeColor=#6c8ebf;rounded=0;" vertex="1" parent="1">
          <mxGeometry x="-100" y="-150" width="130" height="60" as="geometry" />
        </mxCell>
        <mxCell id="YFNmjtGdTgRsqBSVT-xc-34" value="相似性召回" style="whiteSpace=wrap;html=1;verticalAlign=middle;labelBackgroundColor=none;fontSize=20;fillColor=#fff2cc;strokeColor=#d6b656;rounded=0;" vertex="1" parent="1">
          <mxGeometry x="277.5" y="-770" width="130" height="40" as="geometry" />
        </mxCell>
        <mxCell id="YFNmjtGdTgRsqBSVT-xc-36" value="过滤" style="whiteSpace=wrap;html=1;verticalAlign=middle;labelBackgroundColor=none;fontSize=20;fillColor=#fff2cc;strokeColor=#d6b656;rounded=0;" vertex="1" parent="1">
          <mxGeometry x="277.5" y="-710" width="130" height="40" as="geometry" />
        </mxCell>
        <mxCell id="YFNmjtGdTgRsqBSVT-xc-37" value="排序" style="whiteSpace=wrap;html=1;verticalAlign=middle;labelBackgroundColor=none;fontSize=20;fillColor=#fff2cc;strokeColor=#d6b656;rounded=0;" vertex="1" parent="1">
          <mxGeometry x="277.5" y="-650" width="130" height="40" as="geometry" />
        </mxCell>
        <mxCell id="YFNmjtGdTgRsqBSVT-xc-43" value="MF- INFO" style="whiteSpace=wrap;html=1;verticalAlign=middle;labelBackgroundColor=none;fontSize=20;fillColor=#f8cecc;strokeColor=#b85450;rounded=0;" vertex="1" parent="1">
          <mxGeometry x="795" y="-530" width="110" height="40" as="geometry" />
        </mxCell>
        <mxCell id="YFNmjtGdTgRsqBSVT-xc-51" value="" style="edgeStyle=orthogonalEdgeStyle;rounded=0;orthogonalLoop=1;jettySize=auto;html=1;" edge="1" parent="1" source="YFNmjtGdTgRsqBSVT-xc-47" target="YFNmjtGdTgRsqBSVT-xc-50">
          <mxGeometry relative="1" as="geometry" />
        </mxCell>
        <mxCell id="YFNmjtGdTgRsqBSVT-xc-47" value="处理逻辑" style="whiteSpace=wrap;html=1;verticalAlign=middle;labelBackgroundColor=none;fontSize=20;fillColor=#d5e8d4;strokeColor=#82b366;rounded=0;" vertex="1" parent="1">
          <mxGeometry x="1155" y="-160" width="120" height="40" as="geometry" />
        </mxCell>
        <mxCell id="YFNmjtGdTgRsqBSVT-xc-53" value="" style="edgeStyle=orthogonalEdgeStyle;rounded=0;orthogonalLoop=1;jettySize=auto;html=1;" edge="1" parent="1" source="YFNmjtGdTgRsqBSVT-xc-50" target="YFNmjtGdTgRsqBSVT-xc-52">
          <mxGeometry relative="1" as="geometry" />
        </mxCell>
        <mxCell id="YFNmjtGdTgRsqBSVT-xc-50" value="落库" style="whiteSpace=wrap;html=1;verticalAlign=middle;labelBackgroundColor=none;fontSize=20;fillColor=#d5e8d4;strokeColor=#82b366;rounded=0;" vertex="1" parent="1">
          <mxGeometry x="1155" y="-90" width="120" height="40" as="geometry" />
        </mxCell>
        <mxCell id="YFNmjtGdTgRsqBSVT-xc-52" value="展示" style="whiteSpace=wrap;html=1;verticalAlign=middle;labelBackgroundColor=none;fontSize=20;fillColor=#d5e8d4;strokeColor=#82b366;rounded=0;" vertex="1" parent="1">
          <mxGeometry x="1155" y="-20" width="120" height="40" as="geometry" />
        </mxCell>
        <mxCell id="YFNmjtGdTgRsqBSVT-xc-58" value="" style="edgeStyle=orthogonalEdgeStyle;rounded=0;orthogonalLoop=1;jettySize=auto;html=1;" edge="1" parent="1" source="YFNmjtGdTgRsqBSVT-xc-54" target="YFNmjtGdTgRsqBSVT-xc-57">
          <mxGeometry relative="1" as="geometry" />
        </mxCell>
        <mxCell id="YFNmjtGdTgRsqBSVT-xc-54" value="处理逻辑" style="whiteSpace=wrap;html=1;verticalAlign=middle;labelBackgroundColor=none;fontSize=20;fillColor=#d5e8d4;strokeColor=#82b366;rounded=0;" vertex="1" parent="1">
          <mxGeometry x="1465" y="-380" width="120" height="40" as="geometry" />
        </mxCell>
        <mxCell id="YFNmjtGdTgRsqBSVT-xc-57" value="落库" style="whiteSpace=wrap;html=1;verticalAlign=middle;labelBackgroundColor=none;fontSize=20;fillColor=#d5e8d4;strokeColor=#82b366;rounded=0;" vertex="1" parent="1">
          <mxGeometry x="1465" y="-310" width="120" height="40" as="geometry" />
        </mxCell>
        <mxCell id="YFNmjtGdTgRsqBSVT-xc-66" style="edgeStyle=orthogonalEdgeStyle;rounded=0;orthogonalLoop=1;jettySize=auto;html=1;entryX=0.5;entryY=0;entryDx=0;entryDy=0;" edge="1" parent="1" source="YFNmjtGdTgRsqBSVT-xc-63" target="FMsZeif13KGJiMdeBh8e-78">
          <mxGeometry relative="1" as="geometry" />
        </mxCell>
        <mxCell id="YFNmjtGdTgRsqBSVT-xc-63" value="主投简历" style="whiteSpace=wrap;html=1;verticalAlign=middle;labelBackgroundColor=none;fontSize=20;fillColor=#fad9d5;strokeColor=#ae4132;rounded=0;" vertex="1" parent="1">
          <mxGeometry x="570" y="-80" width="110" height="40" as="geometry" />
        </mxCell>
        <mxCell id="YFNmjtGdTgRsqBSVT-xc-70" style="edgeStyle=orthogonalEdgeStyle;rounded=0;orthogonalLoop=1;jettySize=auto;html=1;entryX=0.5;entryY=0;entryDx=0;entryDy=0;" edge="1" parent="1" source="YFNmjtGdTgRsqBSVT-xc-68" target="FMsZeif13KGJiMdeBh8e-78">
          <mxGeometry relative="1" as="geometry" />
        </mxCell>
        <mxCell id="YFNmjtGdTgRsqBSVT-xc-68" value="创建邀约" style="whiteSpace=wrap;html=1;verticalAlign=middle;labelBackgroundColor=none;fontSize=20;fillColor=#fad9d5;strokeColor=#ae4132;rounded=0;" vertex="1" parent="1">
          <mxGeometry x="720" y="-80" width="110" height="40" as="geometry" />
        </mxCell>
        <mxCell id="YFNmjtGdTgRsqBSVT-xc-73" style="edgeStyle=orthogonalEdgeStyle;rounded=0;orthogonalLoop=1;jettySize=auto;html=1;entryX=0;entryY=0.5;entryDx=0;entryDy=0;" edge="1" parent="1" source="YFNmjtGdTgRsqBSVT-xc-71" target="FMsZeif13KGJiMdeBh8e-44">
          <mxGeometry relative="1" as="geometry" />
        </mxCell>
        <mxCell id="YFNmjtGdTgRsqBSVT-xc-71" value="前置校验（同创建任务）" style="whiteSpace=wrap;html=1;verticalAlign=middle;labelBackgroundColor=none;fontSize=20;fillColor=#f8cecc;strokeColor=#b85450;rounded=0;" vertex="1" parent="1">
          <mxGeometry x="613.75" y="-440" width="127.5" height="60" as="geometry" />
        </mxCell>
        <mxCell id="YFNmjtGdTgRsqBSVT-xc-80" style="edgeStyle=orthogonalEdgeStyle;rounded=0;orthogonalLoop=1;jettySize=auto;html=1;" edge="1" parent="1" source="YFNmjtGdTgRsqBSVT-xc-78" target="FMsZeif13KGJiMdeBh8e-65">
          <mxGeometry relative="1" as="geometry" />
        </mxCell>
        <mxCell id="YFNmjtGdTgRsqBSVT-xc-78" value="落库" style="whiteSpace=wrap;html=1;verticalAlign=middle;labelBackgroundColor=none;fontSize=20;fillColor=#d5e8d4;strokeColor=#82b366;rounded=0;" vertex="1" parent="1">
          <mxGeometry x="860" y="-240" width="120" height="40" as="geometry" />
        </mxCell>
      </root>
    </mxGraphModel>
  </diagram>
</mxfile>
